solid OpenSCAD_Model
  facet normal -1 0 -2.22045e-16
    outer loop
      vertex -20 0 50
      vertex -20 4.15823 49.563
      vertex -20 -4.15823 49.563
    endloop
  endfacet
  facet normal -1 0 -2.22045e-16
    outer loop
      vertex -20 -4.15823 49.563
      vertex -20 4.15823 49.563
      vertex -20 8.13473 48.2709
    endloop
  endfacet
  facet normal -1 0 -2.22045e-16
    outer loop
      vertex -20 -4.15823 49.563
      vertex -20 8.13473 48.2709
      vertex -20 11.7557 46.1803
    endloop
  endfacet
  facet normal -1 0 -2.22045e-16
    outer loop
      vertex -20 -4.15823 49.563
      vertex -20 11.7557 46.1803
      vertex -20 14.8629 43.3826
    endloop
  endfacet
  facet normal -1 0 -2.22045e-16
    outer loop
      vertex -20 -4.15823 49.563
      vertex -20 14.8629 43.3826
      vertex -20 17.3205 40
    endloop
  endfacet
  facet normal -1 0 -2.22045e-16
    outer loop
      vertex -20 -4.15823 49.563
      vertex -20 17.3205 40
      vertex -20 19.0211 36.1803
    endloop
  endfacet
  facet normal -1 0 -2.22045e-16
    outer loop
      vertex -20 -4.15823 49.563
      vertex -20 19.0211 36.1803
      vertex -20 19.8904 32.0906
    endloop
  endfacet
  facet normal -1 0 -2.22045e-16
    outer loop
      vertex -20 -4.15823 49.563
      vertex -20 19.8904 32.0906
      vertex -20 19.8904 27.9094
    endloop
  endfacet
  facet normal -1 0 -2.22045e-16
    outer loop
      vertex -20 -4.15823 49.563
      vertex -20 19.8904 27.9094
      vertex -20 19.0211 23.8197
    endloop
  endfacet
  facet normal -1 0 -2.22045e-16
    outer loop
      vertex -20 -4.15823 49.563
      vertex -20 19.0211 23.8197
      vertex -20 17.3205 20
    endloop
  endfacet
  facet normal -1 0 -2.22045e-16
    outer loop
      vertex -20 -4.15823 49.563
      vertex -20 17.3205 20
      vertex -20 14.8629 16.6174
    endloop
  endfacet
  facet normal -1 0 -2.22045e-16
    outer loop
      vertex -20 -4.15823 49.563
      vertex -20 14.8629 16.6174
      vertex -20 11.7557 13.8197
    endloop
  endfacet
  facet normal -1 0 -2.22045e-16
    outer loop
      vertex -20 -4.15823 49.563
      vertex -20 11.7557 13.8197
      vertex -20 8.13473 11.7291
    endloop
  endfacet
  facet normal -1 0 -2.22045e-16
    outer loop
      vertex -20 -4.15823 49.563
      vertex -20 8.13473 11.7291
      vertex -20 4.15823 10.437
    endloop
  endfacet
  facet normal -1 0 -2.22045e-16
    outer loop
      vertex -20 -4.15823 49.563
      vertex -20 4.15823 10.437
      vertex -20 0 10
    endloop
  endfacet
  facet normal -1 0 -2.22045e-16
    outer loop
      vertex -20 -4.15823 49.563
      vertex -20 0 10
      vertex -20 -4.15823 10.437
    endloop
  endfacet
  facet normal -1 0 -2.22045e-16
    outer loop
      vertex -20 -4.15823 49.563
      vertex -20 -4.15823 10.437
      vertex -20 -8.13473 11.7291
    endloop
  endfacet
  facet normal -1 0 -2.22045e-16
    outer loop
      vertex -20 -4.15823 49.563
      vertex -20 -8.13473 11.7291
      vertex -20 -11.7557 13.8197
    endloop
  endfacet
  facet normal -1 0 -2.22045e-16
    outer loop
      vertex -20 -4.15823 49.563
      vertex -20 -11.7557 13.8197
      vertex -20 -14.8629 16.6174
    endloop
  endfacet
  facet normal -1 0 -2.22045e-16
    outer loop
      vertex -20 -4.15823 49.563
      vertex -20 -14.8629 16.6174
      vertex -20 -17.3205 20
    endloop
  endfacet
  facet normal -1 0 -2.22045e-16
    outer loop
      vertex -20 -4.15823 49.563
      vertex -20 -17.3205 20
      vertex -20 -19.0211 23.8197
    endloop
  endfacet
  facet normal -1 0 -2.22045e-16
    outer loop
      vertex -20 -4.15823 49.563
      vertex -20 -19.0211 23.8197
      vertex -20 -19.8904 27.9094
    endloop
  endfacet
  facet normal -1 0 -2.22045e-16
    outer loop
      vertex -20 -4.15823 49.563
      vertex -20 -19.8904 27.9094
      vertex -20 -19.8904 32.0906
    endloop
  endfacet
  facet normal -1 0 -2.22045e-16
    outer loop
      vertex -20 -4.15823 49.563
      vertex -20 -19.8904 32.0906
      vertex -20 -19.0211 36.1803
    endloop
  endfacet
  facet normal -1 0 -2.22045e-16
    outer loop
      vertex -20 -4.15823 49.563
      vertex -20 -19.0211 36.1803
      vertex -20 -17.3205 40
    endloop
  endfacet
  facet normal -1 0 -2.22045e-16
    outer loop
      vertex -20 -4.15823 49.563
      vertex -20 -17.3205 40
      vertex -20 -14.8629 43.3826
    endloop
  endfacet
  facet normal -1 0 -2.22045e-16
    outer loop
      vertex -20 -4.15823 49.563
      vertex -20 -14.8629 43.3826
      vertex -20 -11.7557 46.1803
    endloop
  endfacet
  facet normal -1 0 -2.22045e-16
    outer loop
      vertex -20 -4.15823 49.563
      vertex -20 -11.7557 46.1803
      vertex -20 -8.13473 48.2709
    endloop
  endfacet
  facet normal -2.20828e-16 0.104528 0.994522
    outer loop
      vertex -20 4.15823 49.563
      vertex -20 0 50
      vertex -5.7735 0 50
    endloop
  endfacet
  facet normal -2.20828e-16 0.104528 0.994522
    outer loop
      vertex 28.8675 0 50
      vertex -20 4.15823 49.563
      vertex 5.7735 0 50
    endloop
  endfacet
  facet normal -2.20828e-16 0.104528 0.994522
    outer loop
      vertex 5.7735 0 50
      vertex -20 4.15823 49.563
      vertex -5.7735 0 50
    endloop
  endfacet
  facet normal -2.20828e-16 0.104528 0.994522
    outer loop
      vertex 28.6152 4.15823 49.563
      vertex -20 4.15823 49.563
      vertex 28.8675 0 50
    endloop
  endfacet
  facet normal -2.20828e-16 -0.104528 0.994522
    outer loop
      vertex -5.7735 0 50
      vertex -20 0 50
      vertex -20 -4.15823 49.563
    endloop
  endfacet
  facet normal -2.20828e-16 -0.104528 0.994522
    outer loop
      vertex -5.52117 -4.15823 49.563
      vertex -5.7735 0 50
      vertex -20 -4.15823 49.563
    endloop
  endfacet
  facet normal -2.11177e-16 -0.309017 0.951057
    outer loop
      vertex -5.52117 -4.15823 49.563
      vertex -20 -4.15823 49.563
      vertex -20 -8.13473 48.2709
    endloop
  endfacet
  facet normal -2.11177e-16 -0.309017 0.951057
    outer loop
      vertex -4.77521 -8.13473 48.2709
      vertex -5.52117 -4.15823 49.563
      vertex -20 -8.13473 48.2709
    endloop
  endfacet
  facet normal -1.92296e-16 -0.5 0.866025
    outer loop
      vertex -4.77521 -8.13473 48.2709
      vertex -20 -8.13473 48.2709
      vertex -20 -11.7557 46.1803
    endloop
  endfacet
  facet normal -1.92296e-16 -0.5 0.866025
    outer loop
      vertex -3.56822 -11.7557 46.1803
      vertex -4.77521 -8.13473 48.2709
      vertex -20 -11.7557 46.1803
    endloop
  endfacet
  facet normal -1.65011e-16 -0.669131 0.743145
    outer loop
      vertex -3.56822 -11.7557 46.1803
      vertex -20 -11.7557 46.1803
      vertex -20 -14.8629 43.3826
    endloop
  endfacet
  facet normal -1.65011e-16 -0.669131 0.743145
    outer loop
      vertex -1.95295 -14.8629 43.3826
      vertex -3.56822 -11.7557 46.1803
      vertex -20 -14.8629 43.3826
    endloop
  endfacet
  facet normal -1.30515e-16 -0.809017 0.587785
    outer loop
      vertex -1.95295 -14.8629 43.3826
      vertex -20 -14.8629 43.3826
      vertex -20 -17.3205 40
    endloop
  endfacet
  facet normal -1.30515e-16 -0.809017 0.587785
    outer loop
      vertex 1.1519e-15 -17.3205 40
      vertex -1.95295 -14.8629 43.3826
      vertex -20 -17.3205 40
    endloop
  endfacet
  facet normal -9.03137e-17 -0.913545 0.406737
    outer loop
      vertex 1.1519e-15 -17.3205 40
      vertex -20 -17.3205 40
      vertex -20 -19.0211 36.1803
    endloop
  endfacet
  facet normal -9.03137e-17 -0.913545 0.406737
    outer loop
      vertex 2.20528 -19.0211 36.1803
      vertex 1.1519e-15 -17.3205 40
      vertex -20 -19.0211 36.1803
    endloop
  endfacet
  facet normal -4.61657e-17 -0.978148 0.207912
    outer loop
      vertex 2.20528 -19.0211 36.1803
      vertex -20 -19.0211 36.1803
      vertex -20 -19.8904 32.0906
    endloop
  endfacet
  facet normal -4.61657e-17 -0.978148 0.207912
    outer loop
      vertex 4.56651 -19.8904 32.0906
      vertex 2.20528 -19.0211 36.1803
      vertex -20 -19.8904 32.0906
    endloop
  endfacet
  facet normal 0 -1 0
    outer loop
      vertex 4.56651 -19.8904 32.0906
      vertex -20 -19.8904 32.0906
      vertex -20 -19.8904 27.9094
    endloop
  endfacet
  facet normal 0 -1 0
    outer loop
      vertex 6.98049 -19.8904 27.9094
      vertex 4.56651 -19.8904 32.0906
      vertex -20 -19.8904 27.9094
    endloop
  endfacet
  facet normal 4.61657e-17 -0.978148 -0.207912
    outer loop
      vertex 6.98049 -19.8904 27.9094
      vertex -20 -19.8904 27.9094
      vertex -20 -19.0211 23.8197
    endloop
  endfacet
  facet normal 4.61657e-17 -0.978148 -0.207912
    outer loop
      vertex 9.34172 -19.0211 23.8197
      vertex 6.98049 -19.8904 27.9094
      vertex -20 -19.0211 23.8197
    endloop
  endfacet
  facet normal 9.03137e-17 -0.913545 -0.406737
    outer loop
      vertex 9.34172 -19.0211 23.8197
      vertex -20 -19.0211 23.8197
      vertex -20 -17.3205 20
    endloop
  endfacet
  facet normal 9.03137e-17 -0.913545 -0.406737
    outer loop
      vertex 11.547 -17.3205 20
      vertex 9.34172 -19.0211 23.8197
      vertex -20 -17.3205 20
    endloop
  endfacet
  facet normal 1.30515e-16 -0.809017 -0.587785
    outer loop
      vertex 11.547 -17.3205 20
      vertex -20 -17.3205 20
      vertex -20 -14.8629 16.6174
    endloop
  endfacet
  facet normal 1.30515e-16 -0.809017 -0.587785
    outer loop
      vertex 13.5 -14.8629 16.6174
      vertex 11.547 -17.3205 20
      vertex -20 -14.8629 16.6174
    endloop
  endfacet
  facet normal 1.65011e-16 -0.669131 -0.743145
    outer loop
      vertex -20 -14.8629 16.6174
      vertex -20 -11.7557 13.8197
      vertex 13.5 -14.8629 16.6174
    endloop
  endfacet
  facet normal 1.65011e-16 -0.669131 -0.743145
    outer loop
      vertex 13.5 -14.8629 16.6174
      vertex -20 -11.7557 13.8197
      vertex 15.1152 -11.7557 13.8197
    endloop
  endfacet
  facet normal 1.92296e-16 -0.5 -0.866025
    outer loop
      vertex -20 -11.7557 13.8197
      vertex -20 -8.13473 11.7291
      vertex 15.1152 -11.7557 13.8197
    endloop
  endfacet
  facet normal 1.92296e-16 -0.5 -0.866025
    outer loop
      vertex 15.1152 -11.7557 13.8197
      vertex -20 -8.13473 11.7291
      vertex 16.3222 -8.13473 11.7291
    endloop
  endfacet
  facet normal 2.11177e-16 -0.309017 -0.951057
    outer loop
      vertex -20 -8.13473 11.7291
      vertex -20 -4.15823 10.437
      vertex 16.3222 -8.13473 11.7291
    endloop
  endfacet
  facet normal 2.11177e-16 -0.309017 -0.951057
    outer loop
      vertex 16.3222 -8.13473 11.7291
      vertex -20 -4.15823 10.437
      vertex 17.0682 -4.15823 10.437
    endloop
  endfacet
  facet normal 2.20828e-16 -0.104528 -0.994522
    outer loop
      vertex -20 -4.15823 10.437
      vertex -20 0 10
      vertex 17.0682 -4.15823 10.437
    endloop
  endfacet
  facet normal 2.20828e-16 -0.104528 -0.994522
    outer loop
      vertex 17.0682 -4.15823 10.437
      vertex -20 0 10
      vertex 5.7735 0 10
    endloop
  endfacet
  facet normal 2.20828e-16 -0.104528 -0.994522
    outer loop
      vertex 17.0682 -4.15823 10.437
      vertex 5.7735 0 10
      vertex 17.3205 0 10
    endloop
  endfacet
  facet normal 2.20828e-16 0.104528 -0.994522
    outer loop
      vertex -20 4.15823 10.437
      vertex 6.02583 4.15823 10.437
      vertex -20 0 10
    endloop
  endfacet
  facet normal 2.20828e-16 0.104528 -0.994522
    outer loop
      vertex -20 0 10
      vertex 6.02583 4.15823 10.437
      vertex 5.7735 0 10
    endloop
  endfacet
  facet normal 2.11177e-16 0.309017 -0.951057
    outer loop
      vertex -20 8.13473 11.7291
      vertex 6.77179 8.13473 11.7291
      vertex -20 4.15823 10.437
    endloop
  endfacet
  facet normal 2.11177e-16 0.309017 -0.951057
    outer loop
      vertex -20 4.15823 10.437
      vertex 6.77179 8.13473 11.7291
      vertex 6.02583 4.15823 10.437
    endloop
  endfacet
  facet normal 1.92296e-16 0.5 -0.866025
    outer loop
      vertex -20 11.7557 13.8197
      vertex 7.97878 11.7557 13.8197
      vertex -20 8.13473 11.7291
    endloop
  endfacet
  facet normal 1.92296e-16 0.5 -0.866025
    outer loop
      vertex -20 8.13473 11.7291
      vertex 7.97878 11.7557 13.8197
      vertex 6.77179 8.13473 11.7291
    endloop
  endfacet
  facet normal 1.65011e-16 0.669131 -0.743145
    outer loop
      vertex -20 14.8629 16.6174
      vertex 9.59405 14.8629 16.6174
      vertex -20 11.7557 13.8197
    endloop
  endfacet
  facet normal 1.65011e-16 0.669131 -0.743145
    outer loop
      vertex -20 11.7557 13.8197
      vertex 9.59405 14.8629 16.6174
      vertex 7.97878 11.7557 13.8197
    endloop
  endfacet
  facet normal 1.30515e-16 0.809017 -0.587785
    outer loop
      vertex -20 17.3205 20
      vertex 11.547 17.3205 20
      vertex -20 14.8629 16.6174
    endloop
  endfacet
  facet normal 1.30515e-16 0.809017 -0.587785
    outer loop
      vertex -20 14.8629 16.6174
      vertex 11.547 17.3205 20
      vertex 9.59405 14.8629 16.6174
    endloop
  endfacet
  facet normal 9.03137e-17 0.913545 -0.406737
    outer loop
      vertex -20 19.0211 23.8197
      vertex 13.7523 19.0211 23.8197
      vertex -20 17.3205 20
    endloop
  endfacet
  facet normal 9.03137e-17 0.913545 -0.406737
    outer loop
      vertex -20 17.3205 20
      vertex 13.7523 19.0211 23.8197
      vertex 11.547 17.3205 20
    endloop
  endfacet
  facet normal 4.61657e-17 0.978148 -0.207912
    outer loop
      vertex -20 19.8904 27.9094
      vertex 16.1135 19.8904 27.9094
      vertex -20 19.0211 23.8197
    endloop
  endfacet
  facet normal 4.61657e-17 0.978148 -0.207912
    outer loop
      vertex -20 19.0211 23.8197
      vertex 16.1135 19.8904 27.9094
      vertex 13.7523 19.0211 23.8197
    endloop
  endfacet
  facet normal 0 1 0
    outer loop
      vertex -20 19.8904 32.0906
      vertex 18.5275 19.8904 32.0906
      vertex -20 19.8904 27.9094
    endloop
  endfacet
  facet normal 0 1 0
    outer loop
      vertex -20 19.8904 27.9094
      vertex 18.5275 19.8904 32.0906
      vertex 16.1135 19.8904 27.9094
    endloop
  endfacet
  facet normal -4.61657e-17 0.978148 0.207912
    outer loop
      vertex -20 19.0211 36.1803
      vertex 20.8887 19.0211 36.1803
      vertex -20 19.8904 32.0906
    endloop
  endfacet
  facet normal -4.61657e-17 0.978148 0.207912
    outer loop
      vertex -20 19.8904 32.0906
      vertex 20.8887 19.0211 36.1803
      vertex 18.5275 19.8904 32.0906
    endloop
  endfacet
  facet normal -9.03137e-17 0.913545 0.406737
    outer loop
      vertex -20 17.3205 40
      vertex 23.094 17.3205 40
      vertex -20 19.0211 36.1803
    endloop
  endfacet
  facet normal -9.03137e-17 0.913545 0.406737
    outer loop
      vertex -20 19.0211 36.1803
      vertex 23.094 17.3205 40
      vertex 20.8887 19.0211 36.1803
    endloop
  endfacet
  facet normal -1.30515e-16 0.809017 0.587785
    outer loop
      vertex -20 14.8629 43.3826
      vertex 25.047 14.8629 43.3826
      vertex -20 17.3205 40
    endloop
  endfacet
  facet normal -1.30515e-16 0.809017 0.587785
    outer loop
      vertex -20 17.3205 40
      vertex 25.047 14.8629 43.3826
      vertex 23.094 17.3205 40
    endloop
  endfacet
  facet normal -1.65011e-16 0.669131 0.743145
    outer loop
      vertex -20 14.8629 43.3826
      vertex -20 11.7557 46.1803
      vertex 26.6622 11.7557 46.1803
    endloop
  endfacet
  facet normal -1.65011e-16 0.669131 0.743145
    outer loop
      vertex 25.047 14.8629 43.3826
      vertex -20 14.8629 43.3826
      vertex 26.6622 11.7557 46.1803
    endloop
  endfacet
  facet normal -1.92296e-16 0.5 0.866025
    outer loop
      vertex -20 11.7557 46.1803
      vertex -20 8.13473 48.2709
      vertex 27.8692 8.13473 48.2709
    endloop
  endfacet
  facet normal -1.92296e-16 0.5 0.866025
    outer loop
      vertex 26.6622 11.7557 46.1803
      vertex -20 11.7557 46.1803
      vertex 27.8692 8.13473 48.2709
    endloop
  endfacet
  facet normal -2.11177e-16 0.309017 0.951057
    outer loop
      vertex -20 8.13473 48.2709
      vertex -20 4.15823 49.563
      vertex 28.6152 4.15823 49.563
    endloop
  endfacet
  facet normal -2.11177e-16 0.309017 0.951057
    outer loop
      vertex 27.8692 8.13473 48.2709
      vertex -20 8.13473 48.2709
      vertex 28.6152 4.15823 49.563
    endloop
  endfacet
  facet normal -0.866025 0 0.5
    outer loop
      vertex 0 0 0
      vertex 5.7735 0 10
      vertex 0 450 0
    endloop
  endfacet
  facet normal -0.866025 0 0.5
    outer loop
      vertex 0 450 0
      vertex 5.7735 0 10
      vertex 6.02583 4.15823 10.437
    endloop
  endfacet
  facet normal -0.866025 0 0.5
    outer loop
      vertex 0 450 0
      vertex 6.02583 4.15823 10.437
      vertex 6.77179 8.13473 11.7291
    endloop
  endfacet
  facet normal -0.866025 0 0.5
    outer loop
      vertex 6.77179 8.13473 11.7291
      vertex 7.97878 11.7557 13.8197
      vertex 0 450 0
    endloop
  endfacet
  facet normal -0.866025 0 0.5
    outer loop
      vertex 7.97878 11.7557 13.8197
      vertex 9.59405 14.8629 16.6174
      vertex 0 450 0
    endloop
  endfacet
  facet normal -0.866025 0 0.5
    outer loop
      vertex 9.59405 14.8629 16.6174
      vertex 11.547 17.3205 20
      vertex 0 450 0
    endloop
  endfacet
  facet normal -0.866025 0 0.5
    outer loop
      vertex 11.547 17.3205 20
      vertex 13.7523 19.0211 23.8197
      vertex 0 450 0
    endloop
  endfacet
  facet normal -0.866025 0 0.5
    outer loop
      vertex 13.7523 19.0211 23.8197
      vertex 16.1135 19.8904 27.9094
      vertex 0 450 0
    endloop
  endfacet
  facet normal -0.866025 0 0.5
    outer loop
      vertex 16.1135 19.8904 27.9094
      vertex 18.5275 19.8904 32.0906
      vertex 0 450 0
    endloop
  endfacet
  facet normal -0.866025 0 0.5
    outer loop
      vertex 18.5275 19.8904 32.0906
      vertex 20.8887 19.0211 36.1803
      vertex 0 450 0
    endloop
  endfacet
  facet normal -0.866025 0 0.5
    outer loop
      vertex 20.8887 19.0211 36.1803
      vertex 23.094 17.3205 40
      vertex 0 450 0
    endloop
  endfacet
  facet normal -0.866025 0 0.5
    outer loop
      vertex 23.094 17.3205 40
      vertex 25.047 14.8629 43.3826
      vertex 0 450 0
    endloop
  endfacet
  facet normal -0.866025 0 0.5
    outer loop
      vertex 25.047 14.8629 43.3826
      vertex 26.6622 11.7557 46.1803
      vertex 0 450 0
    endloop
  endfacet
  facet normal -0.866025 0 0.5
    outer loop
      vertex 26.6622 11.7557 46.1803
      vertex 27.8692 8.13473 48.2709
      vertex 0 450 0
    endloop
  endfacet
  facet normal -0.866025 0 0.5
    outer loop
      vertex 27.8692 8.13473 48.2709
      vertex 28.6152 4.15823 49.563
      vertex 0 450 0
    endloop
  endfacet
  facet normal -0.866025 0 0.5
    outer loop
      vertex 28.6152 4.15823 49.563
      vertex 28.8675 0 50
      vertex 40 0 69.282
    endloop
  endfacet
  facet normal -0.866025 0 0.5
    outer loop
      vertex 28.6152 4.15823 49.563
      vertex 40 0 69.282
      vertex 0 450 0
    endloop
  endfacet
  facet normal -0.866025 0 0.5
    outer loop
      vertex 0 450 0
      vertex 40 0 69.282
      vertex 40 450 69.282
    endloop
  endfacet
  facet normal 0 -1 0
    outer loop
      vertex 40.4145 0 50
      vertex 48.6603 0 64.282
      vertex 40 0 69.282
    endloop
  endfacet
  facet normal 0 -1 0
    outer loop
      vertex 28.8675 0 50
      vertex 40.4145 0 50
      vertex 40 0 69.282
    endloop
  endfacet
  facet normal -2.20828e-16 -0.104528 0.994522
    outer loop
      vertex 28.8675 0 50
      vertex 5.7735 0 50
      vertex 6.02583 -4.15823 49.563
    endloop
  endfacet
  facet normal -2.20828e-16 -0.104528 0.994522
    outer loop
      vertex 40.4145 0 50
      vertex 28.8675 0 50
      vertex 780 -4.15823 49.563
    endloop
  endfacet
  facet normal -2.20828e-16 -0.104528 0.994522
    outer loop
      vertex 780 -4.15823 49.563
      vertex 28.8675 0 50
      vertex 6.02583 -4.15823 49.563
    endloop
  endfacet
  facet normal -2.20828e-16 -0.104528 0.994522
    outer loop
      vertex 780 0 50
      vertex 40.4145 0 50
      vertex 780 -4.15823 49.563
    endloop
  endfacet
  facet normal 0.866025 0 0.5
    outer loop
      vertex -4.01924 0 66.9615
      vertex -4.01924 -450 66.9615
      vertex 35.9808 -450 -2.32051
    endloop
  endfacet
  facet normal 0.866025 0 0.5
    outer loop
      vertex 11.547 -17.3205 40
      vertex -4.01924 0 66.9615
      vertex 35.9808 -450 -2.32051
    endloop
  endfacet
  facet normal 0.866025 0 0.5
    outer loop
      vertex 35.9808 0 -2.32051
      vertex 28.8675 0 10
      vertex 35.9808 -450 -2.32051
    endloop
  endfacet
  facet normal 0.866025 0 0.5
    outer loop
      vertex 28.8675 0 10
      vertex 28.6152 -4.15823 10.437
      vertex 35.9808 -450 -2.32051
    endloop
  endfacet
  facet normal 0.866025 0 0.5
    outer loop
      vertex 28.6152 -4.15823 10.437
      vertex 27.8692 -8.13473 11.7291
      vertex 35.9808 -450 -2.32051
    endloop
  endfacet
  facet normal 0.866025 0 0.5
    outer loop
      vertex 27.8692 -8.13473 11.7291
      vertex 26.6622 -11.7557 13.8197
      vertex 35.9808 -450 -2.32051
    endloop
  endfacet
  facet normal 0.866025 0 0.5
    outer loop
      vertex 26.6622 -11.7557 13.8197
      vertex 25.047 -14.8629 16.6174
      vertex 35.9808 -450 -2.32051
    endloop
  endfacet
  facet normal 0.866025 0 0.5
    outer loop
      vertex 25.047 -14.8629 16.6174
      vertex 23.094 -17.3205 20
      vertex 35.9808 -450 -2.32051
    endloop
  endfacet
  facet normal 0.866025 0 0.5
    outer loop
      vertex 23.094 -17.3205 20
      vertex 20.8887 -19.0211 23.8197
      vertex 35.9808 -450 -2.32051
    endloop
  endfacet
  facet normal 0.866025 0 0.5
    outer loop
      vertex 20.8887 -19.0211 23.8197
      vertex 18.5275 -19.8904 27.9094
      vertex 35.9808 -450 -2.32051
    endloop
  endfacet
  facet normal 0.866025 0 0.5
    outer loop
      vertex 18.5275 -19.8904 27.9094
      vertex 16.1135 -19.8904 32.0906
      vertex 35.9808 -450 -2.32051
    endloop
  endfacet
  facet normal 0.866025 0 0.5
    outer loop
      vertex 16.1135 -19.8904 32.0906
      vertex 13.7523 -19.0211 36.1803
      vertex 35.9808 -450 -2.32051
    endloop
  endfacet
  facet normal 0.866025 0 0.5
    outer loop
      vertex 13.7523 -19.0211 36.1803
      vertex 11.547 -17.3205 40
      vertex 35.9808 -450 -2.32051
    endloop
  endfacet
  facet normal 0.866025 0 0.5
    outer loop
      vertex 9.59405 -14.8629 43.3826
      vertex -4.01924 0 66.9615
      vertex 11.547 -17.3205 40
    endloop
  endfacet
  facet normal 0.866025 0 0.5
    outer loop
      vertex 7.97878 -11.7557 46.1803
      vertex 6.77179 -8.13473 48.2709
      vertex -4.01924 0 66.9615
    endloop
  endfacet
  facet normal 0.866025 0 0.5
    outer loop
      vertex 6.77179 -8.13473 48.2709
      vertex 6.02583 -4.15823 49.563
      vertex -4.01924 0 66.9615
    endloop
  endfacet
  facet normal 0.866025 0 0.5
    outer loop
      vertex 9.59405 -14.8629 43.3826
      vertex 7.97878 -11.7557 46.1803
      vertex -4.01924 0 66.9615
    endloop
  endfacet
  facet normal 0.866025 0 0.5
    outer loop
      vertex 6.02583 -4.15823 49.563
      vertex 5.7735 0 50
      vertex -4.01924 0 66.9615
    endloop
  endfacet
  facet normal 0 1 0
    outer loop
      vertex -12.6795 0 61.9615
      vertex -4.01924 0 66.9615
      vertex -5.7735 0 50
    endloop
  endfacet
  facet normal 0 1 0
    outer loop
      vertex -5.7735 0 50
      vertex -4.01924 0 66.9615
      vertex 5.7735 0 50
    endloop
  endfacet
  facet normal -0.866025 0 -0.5
    outer loop
      vertex -12.6795 -450 61.9615
      vertex -12.6795 0 61.9615
      vertex 27.3205 -450 -7.32051
    endloop
  endfacet
  facet normal -0.866025 0 -0.5
    outer loop
      vertex -5.52117 -4.15823 49.563
      vertex -12.6795 0 61.9615
      vertex -5.7735 0 50
    endloop
  endfacet
  facet normal -0.866025 0 -0.5
    outer loop
      vertex 27.3205 -450 -7.32051
      vertex -12.6795 0 61.9615
      vertex -5.52117 -4.15823 49.563
    endloop
  endfacet
  facet normal -0.866025 0 -0.5
    outer loop
      vertex 27.3205 -450 -7.32051
      vertex -4.77521 -8.13473 48.2709
      vertex -3.56822 -11.7557 46.1803
    endloop
  endfacet
  facet normal -0.866025 0 -0.5
    outer loop
      vertex -3.56822 -11.7557 46.1803
      vertex -1.95295 -14.8629 43.3826
      vertex 27.3205 -450 -7.32051
    endloop
  endfacet
  facet normal -0.866025 0 -0.5
    outer loop
      vertex -1.95295 -14.8629 43.3826
      vertex 1.1519e-15 -17.3205 40
      vertex 27.3205 -450 -7.32051
    endloop
  endfacet
  facet normal -0.866025 0 -0.5
    outer loop
      vertex 1.1519e-15 -17.3205 40
      vertex 2.20528 -19.0211 36.1803
      vertex 27.3205 -450 -7.32051
    endloop
  endfacet
  facet normal -0.866025 0 -0.5
    outer loop
      vertex 2.20528 -19.0211 36.1803
      vertex 4.56651 -19.8904 32.0906
      vertex 27.3205 -450 -7.32051
    endloop
  endfacet
  facet normal -0.866025 0 -0.5
    outer loop
      vertex 4.56651 -19.8904 32.0906
      vertex 6.98049 -19.8904 27.9094
      vertex 27.3205 -450 -7.32051
    endloop
  endfacet
  facet normal -0.866025 0 -0.5
    outer loop
      vertex 6.98049 -19.8904 27.9094
      vertex 9.34172 -19.0211 23.8197
      vertex 27.3205 -450 -7.32051
    endloop
  endfacet
  facet normal -0.866025 0 -0.5
    outer loop
      vertex 9.34172 -19.0211 23.8197
      vertex 11.547 -17.3205 20
      vertex 27.3205 -450 -7.32051
    endloop
  endfacet
  facet normal -0.866025 0 -0.5
    outer loop
      vertex 11.547 -17.3205 20
      vertex 13.5 -14.8629 16.6174
      vertex 27.3205 -450 -7.32051
    endloop
  endfacet
  facet normal -0.866025 0 -0.5
    outer loop
      vertex 13.5 -14.8629 16.6174
      vertex 15.1152 -11.7557 13.8197
      vertex 27.3205 -450 -7.32051
    endloop
  endfacet
  facet normal -0.866025 0 -0.5
    outer loop
      vertex 15.1152 -11.7557 13.8197
      vertex 16.3222 -8.13473 11.7291
      vertex 27.3205 -450 -7.32051
    endloop
  endfacet
  facet normal -0.866025 0 -0.5
    outer loop
      vertex 16.3222 -8.13473 11.7291
      vertex 17.0682 -4.15823 10.437
      vertex 27.3205 -450 -7.32051
    endloop
  endfacet
  facet normal -0.866025 0 -0.5
    outer loop
      vertex 17.0682 -4.15823 10.437
      vertex 17.3205 0 10
      vertex 27.3205 -450 -7.32051
    endloop
  endfacet
  facet normal -0.866025 0 -0.5
    outer loop
      vertex 27.3205 -450 -7.32051
      vertex 17.3205 0 10
      vertex 27.3205 0 -7.32051
    endloop
  endfacet
  facet normal -0.866025 0 -0.5
    outer loop
      vertex -4.77521 -8.13473 48.2709
      vertex 27.3205 -450 -7.32051
      vertex -5.52117 -4.15823 49.563
    endloop
  endfacet
  facet normal 0 -1 0
    outer loop
      vertex 0 0 0
      vertex 8.66025 0 -5
      vertex 5.7735 0 10
    endloop
  endfacet
  facet normal 0 -1 0
    outer loop
      vertex 5.7735 0 10
      vertex 8.66025 0 -5
      vertex 17.3205 0 10
    endloop
  endfacet
  facet normal -0.5 0 -0.866025
    outer loop
      vertex 0 0 0
      vertex 0 450 0
      vertex 8.66025 0 -5
    endloop
  endfacet
  facet normal -0.5 0 -0.866025
    outer loop
      vertex 8.66025 0 -5
      vertex 0 450 0
      vertex 8.66025 450 -5
    endloop
  endfacet
  facet normal 0 1 0
    outer loop
      vertex 0 450 0
      vertex 40 450 69.282
      vertex 8.66025 450 -5
    endloop
  endfacet
  facet normal 0 1 0
    outer loop
      vertex 8.66025 450 -5
      vertex 40 450 69.282
      vertex 48.6603 450 64.282
    endloop
  endfacet
  facet normal 0.5 0 0.866025
    outer loop
      vertex 40 450 69.282
      vertex 40 0 69.282
      vertex 48.6603 0 64.282
    endloop
  endfacet
  facet normal 0.5 0 0.866025
    outer loop
      vertex 48.6603 450 64.282
      vertex 40 450 69.282
      vertex 48.6603 0 64.282
    endloop
  endfacet
  facet normal 0.866025 0 -0.5
    outer loop
      vertex 17.3205 0 10
      vertex 8.66025 0 -5
      vertex 8.66025 450 -5
    endloop
  endfacet
  facet normal 0.866025 0 -0.5
    outer loop
      vertex 17.5728 4.15823 10.437
      vertex 17.3205 0 10
      vertex 8.66025 450 -5
    endloop
  endfacet
  facet normal 0.866025 0 -0.5
    outer loop
      vertex 48.6603 0 64.282
      vertex 40.4145 0 50
      vertex 48.6603 450 64.282
    endloop
  endfacet
  facet normal 0.866025 0 -0.5
    outer loop
      vertex 40.4145 0 50
      vertex 40.1622 4.15823 49.563
      vertex 48.6603 450 64.282
    endloop
  endfacet
  facet normal 0.866025 0 -0.5
    outer loop
      vertex 40.1622 4.15823 49.563
      vertex 39.4162 8.13473 48.2709
      vertex 48.6603 450 64.282
    endloop
  endfacet
  facet normal 0.866025 0 -0.5
    outer loop
      vertex 39.4162 8.13473 48.2709
      vertex 38.2092 11.7557 46.1803
      vertex 48.6603 450 64.282
    endloop
  endfacet
  facet normal 0.866025 0 -0.5
    outer loop
      vertex 38.2092 11.7557 46.1803
      vertex 36.594 14.8629 43.3826
      vertex 48.6603 450 64.282
    endloop
  endfacet
  facet normal 0.866025 0 -0.5
    outer loop
      vertex 36.594 14.8629 43.3826
      vertex 34.641 17.3205 40
      vertex 48.6603 450 64.282
    endloop
  endfacet
  facet normal 0.866025 0 -0.5
    outer loop
      vertex 34.641 17.3205 40
      vertex 32.4357 19.0211 36.1803
      vertex 48.6603 450 64.282
    endloop
  endfacet
  facet normal 0.866025 0 -0.5
    outer loop
      vertex 32.4357 19.0211 36.1803
      vertex 30.0745 19.8904 32.0906
      vertex 48.6603 450 64.282
    endloop
  endfacet
  facet normal 0.866025 0 -0.5
    outer loop
      vertex 30.0745 19.8904 32.0906
      vertex 27.6605 19.8904 27.9094
      vertex 48.6603 450 64.282
    endloop
  endfacet
  facet normal 0.866025 0 -0.5
    outer loop
      vertex 27.6605 19.8904 27.9094
      vertex 25.2993 19.0211 23.8197
      vertex 48.6603 450 64.282
    endloop
  endfacet
  facet normal 0.866025 0 -0.5
    outer loop
      vertex 25.2993 19.0211 23.8197
      vertex 23.094 17.3205 20
      vertex 48.6603 450 64.282
    endloop
  endfacet
  facet normal 0.866025 0 -0.5
    outer loop
      vertex 23.094 17.3205 20
      vertex 21.1411 14.8629 16.6174
      vertex 48.6603 450 64.282
    endloop
  endfacet
  facet normal 0.866025 0 -0.5
    outer loop
      vertex 21.1411 14.8629 16.6174
      vertex 19.5258 11.7557 13.8197
      vertex 48.6603 450 64.282
    endloop
  endfacet
  facet normal 0.866025 0 -0.5
    outer loop
      vertex 19.5258 11.7557 13.8197
      vertex 18.3188 8.13473 11.7291
      vertex 48.6603 450 64.282
    endloop
  endfacet
  facet normal 0.866025 0 -0.5
    outer loop
      vertex 48.6603 450 64.282
      vertex 17.5728 4.15823 10.437
      vertex 8.66025 450 -5
    endloop
  endfacet
  facet normal 0.866025 0 -0.5
    outer loop
      vertex 18.3188 8.13473 11.7291
      vertex 17.5728 4.15823 10.437
      vertex 48.6603 450 64.282
    endloop
  endfacet
  facet normal -2.20828e-16 0.104528 0.994522
    outer loop
      vertex 780 4.15823 49.563
      vertex 40.1622 4.15823 49.563
      vertex 40.4145 0 50
    endloop
  endfacet
  facet normal -2.20828e-16 0.104528 0.994522
    outer loop
      vertex 780 0 50
      vertex 780 4.15823 49.563
      vertex 40.4145 0 50
    endloop
  endfacet
  facet normal 1 0 2.22045e-16
    outer loop
      vertex 780 4.15823 49.563
      vertex 780 0 50
      vertex 780 -4.15823 49.563
    endloop
  endfacet
  facet normal 1 0 2.22045e-16
    outer loop
      vertex 780 -11.7557 46.1803
      vertex 780 4.15823 49.563
      vertex 780 -8.13473 48.2709
    endloop
  endfacet
  facet normal 1 0 2.22045e-16
    outer loop
      vertex 780 -8.13473 48.2709
      vertex 780 4.15823 49.563
      vertex 780 -4.15823 49.563
    endloop
  endfacet
  facet normal 1 0 2.22045e-16
    outer loop
      vertex 780 -14.8629 43.3826
      vertex 780 4.15823 49.563
      vertex 780 -11.7557 46.1803
    endloop
  endfacet
  facet normal 1 0 2.22045e-16
    outer loop
      vertex 780 -17.3205 40
      vertex 780 4.15823 49.563
      vertex 780 -14.8629 43.3826
    endloop
  endfacet
  facet normal 1 0 2.22045e-16
    outer loop
      vertex 780 17.3205 40
      vertex 780 4.15823 49.563
      vertex 780 -17.3205 40
    endloop
  endfacet
  facet normal 1 0 2.22045e-16
    outer loop
      vertex 780 14.8629 43.3826
      vertex 780 4.15823 49.563
      vertex 780 17.3205 40
    endloop
  endfacet
  facet normal 1 0 2.22045e-16
    outer loop
      vertex 780 11.7557 46.1803
      vertex 780 4.15823 49.563
      vertex 780 14.8629 43.3826
    endloop
  endfacet
  facet normal 1 0 2.22045e-16
    outer loop
      vertex 780 8.13473 48.2709
      vertex 780 4.15823 49.563
      vertex 780 11.7557 46.1803
    endloop
  endfacet
  facet normal -2.11177e-16 -0.309017 0.951057
    outer loop
      vertex 780 -4.15823 49.563
      vertex 6.02583 -4.15823 49.563
      vertex 6.77179 -8.13473 48.2709
    endloop
  endfacet
  facet normal -2.11177e-16 -0.309017 0.951057
    outer loop
      vertex 780 -8.13473 48.2709
      vertex 780 -4.15823 49.563
      vertex 6.77179 -8.13473 48.2709
    endloop
  endfacet
  facet normal -0.5 0 0.866025
    outer loop
      vertex -12.6795 0 61.9615
      vertex -12.6795 -450 61.9615
      vertex -4.01924 -450 66.9615
    endloop
  endfacet
  facet normal -0.5 0 0.866025
    outer loop
      vertex -4.01924 0 66.9615
      vertex -12.6795 0 61.9615
      vertex -4.01924 -450 66.9615
    endloop
  endfacet
  facet normal -1.92296e-16 -0.5 0.866025
    outer loop
      vertex 780 -8.13473 48.2709
      vertex 6.77179 -8.13473 48.2709
      vertex 7.97878 -11.7557 46.1803
    endloop
  endfacet
  facet normal -1.92296e-16 -0.5 0.866025
    outer loop
      vertex 780 -11.7557 46.1803
      vertex 780 -8.13473 48.2709
      vertex 7.97878 -11.7557 46.1803
    endloop
  endfacet
  facet normal -1.65011e-16 -0.669131 0.743145
    outer loop
      vertex 780 -11.7557 46.1803
      vertex 7.97878 -11.7557 46.1803
      vertex 9.59405 -14.8629 43.3826
    endloop
  endfacet
  facet normal -1.65011e-16 -0.669131 0.743145
    outer loop
      vertex 780 -14.8629 43.3826
      vertex 780 -11.7557 46.1803
      vertex 9.59405 -14.8629 43.3826
    endloop
  endfacet
  facet normal -1.30515e-16 -0.809017 0.587785
    outer loop
      vertex 780 -14.8629 43.3826
      vertex 9.59405 -14.8629 43.3826
      vertex 11.547 -17.3205 40
    endloop
  endfacet
  facet normal -1.30515e-16 -0.809017 0.587785
    outer loop
      vertex 780 -17.3205 40
      vertex 780 -14.8629 43.3826
      vertex 11.547 -17.3205 40
    endloop
  endfacet
  facet normal -9.03137e-17 -0.913545 0.406737
    outer loop
      vertex 713.343 -17.3205 40
      vertex 11.547 -17.3205 40
      vertex 13.7523 -19.0211 36.1803
    endloop
  endfacet
  facet normal -9.03137e-17 -0.913545 0.406737
    outer loop
      vertex 780 -17.3205 40
      vertex 11.547 -17.3205 40
      vertex 713.343 -17.3205 40
    endloop
  endfacet
  facet normal -9.03137e-17 -0.913545 0.406737
    outer loop
      vertex 713.895 -19.0211 36.1803
      vertex 713.343 -17.3205 40
      vertex 13.7523 -19.0211 36.1803
    endloop
  endfacet
  facet normal -4.61657e-17 -0.978148 0.207912
    outer loop
      vertex 713.895 -19.0211 36.1803
      vertex 13.7523 -19.0211 36.1803
      vertex 16.1135 -19.8904 32.0906
    endloop
  endfacet
  facet normal -4.61657e-17 -0.978148 0.207912
    outer loop
      vertex 714.178 -19.8904 32.0906
      vertex 713.895 -19.0211 36.1803
      vertex 16.1135 -19.8904 32.0906
    endloop
  endfacet
  facet normal 0 -1 0
    outer loop
      vertex 714.178 -19.8904 32.0906
      vertex 16.1135 -19.8904 32.0906
      vertex 18.5275 -19.8904 27.9094
    endloop
  endfacet
  facet normal 0 -1 0
    outer loop
      vertex 714.178 -19.8904 27.9094
      vertex 714.178 -19.8904 32.0906
      vertex 18.5275 -19.8904 27.9094
    endloop
  endfacet
  facet normal 4.61657e-17 -0.978148 -0.207912
    outer loop
      vertex 714.178 -19.8904 27.9094
      vertex 18.5275 -19.8904 27.9094
      vertex 20.8887 -19.0211 23.8197
    endloop
  endfacet
  facet normal 4.61657e-17 -0.978148 -0.207912
    outer loop
      vertex 713.895 -19.0211 23.8197
      vertex 714.178 -19.8904 27.9094
      vertex 20.8887 -19.0211 23.8197
    endloop
  endfacet
  facet normal 9.03137e-17 -0.913545 -0.406737
    outer loop
      vertex 713.895 -19.0211 23.8197
      vertex 20.8887 -19.0211 23.8197
      vertex 23.094 -17.3205 20
    endloop
  endfacet
  facet normal 9.03137e-17 -0.913545 -0.406737
    outer loop
      vertex 713.343 -17.3205 20
      vertex 713.895 -19.0211 23.8197
      vertex 23.094 -17.3205 20
    endloop
  endfacet
  facet normal 1.30515e-16 -0.809017 -0.587785
    outer loop
      vertex 713.343 -17.3205 20
      vertex 23.094 -17.3205 20
      vertex 25.047 -14.8629 16.6174
    endloop
  endfacet
  facet normal 1.30515e-16 -0.809017 -0.587785
    outer loop
      vertex 712.544 -14.8629 16.6174
      vertex 713.343 -17.3205 20
      vertex 25.047 -14.8629 16.6174
    endloop
  endfacet
  facet normal 1.65011e-16 -0.669131 -0.743145
    outer loop
      vertex 25.047 -14.8629 16.6174
      vertex 26.6622 -11.7557 13.8197
      vertex 712.544 -14.8629 16.6174
    endloop
  endfacet
  facet normal 1.65011e-16 -0.669131 -0.743145
    outer loop
      vertex 712.544 -14.8629 16.6174
      vertex 26.6622 -11.7557 13.8197
      vertex 711.535 -11.7557 13.8197
    endloop
  endfacet
  facet normal 1.92296e-16 -0.5 -0.866025
    outer loop
      vertex 26.6622 -11.7557 13.8197
      vertex 27.8692 -8.13473 11.7291
      vertex 711.535 -11.7557 13.8197
    endloop
  endfacet
  facet normal 1.92296e-16 -0.5 -0.866025
    outer loop
      vertex 711.093 -10.3956 13.0344
      vertex 27.8692 -8.13473 11.7291
      vertex 710.855 -8.13473 11.7291
    endloop
  endfacet
  facet normal 1.92296e-16 -0.5 -0.866025
    outer loop
      vertex 711.535 -11.7557 13.8197
      vertex 27.8692 -8.13473 11.7291
      vertex 711.093 -10.3956 13.0344
    endloop
  endfacet
  facet normal 2.11177e-16 -0.309017 -0.951057
    outer loop
      vertex 27.8692 -8.13473 11.7291
      vertex 28.6152 -4.15823 10.437
      vertex 710.855 -8.13473 11.7291
    endloop
  endfacet
  facet normal 2.11177e-16 -0.309017 -0.951057
    outer loop
      vertex 710.855 -8.13473 11.7291
      vertex 28.6152 -4.15823 10.437
      vertex 710.437 -4.15823 10.437
    endloop
  endfacet
  facet normal 2.20828e-16 -0.104528 -0.994522
    outer loop
      vertex 28.6152 -4.15823 10.437
      vertex 28.8675 0 10
      vertex 710.437 -4.15823 10.437
    endloop
  endfacet
  facet normal 2.20828e-16 -0.104528 -0.994522
    outer loop
      vertex 710.437 -4.15823 10.437
      vertex 28.8675 0 10
      vertex 710 0 10
    endloop
  endfacet
  facet normal 2.20828e-16 0.104528 -0.994522
    outer loop
      vertex 17.3205 0 10
      vertex 17.5728 4.15823 10.437
      vertex 28.8675 0 10
    endloop
  endfacet
  facet normal 2.20828e-16 0.104528 -0.994522
    outer loop
      vertex 28.8675 0 10
      vertex 17.5728 4.15823 10.437
      vertex 710.437 4.15823 10.437
    endloop
  endfacet
  facet normal 2.20828e-16 0.104528 -0.994522
    outer loop
      vertex 28.8675 0 10
      vertex 710.437 4.15823 10.437
      vertex 710 0 10
    endloop
  endfacet
  facet normal 0 1 0
    outer loop
      vertex 27.3205 0 -7.32051
      vertex 17.3205 0 10
      vertex 28.8675 0 10
    endloop
  endfacet
  facet normal 0 1 0
    outer loop
      vertex 27.3205 0 -7.32051
      vertex 28.8675 0 10
      vertex 35.9808 0 -2.32051
    endloop
  endfacet
  facet normal 0.5 0 -0.866025
    outer loop
      vertex 27.3205 -450 -7.32051
      vertex 27.3205 0 -7.32051
      vertex 35.9808 -450 -2.32051
    endloop
  endfacet
  facet normal 0.5 0 -0.866025
    outer loop
      vertex 35.9808 -450 -2.32051
      vertex 27.3205 0 -7.32051
      vertex 35.9808 0 -2.32051
    endloop
  endfacet
  facet normal 0 -1 0
    outer loop
      vertex -4.01924 -450 66.9615
      vertex -12.6795 -450 61.9615
      vertex 27.3205 -450 -7.32051
    endloop
  endfacet
  facet normal 0 -1 0
    outer loop
      vertex 35.9808 -450 -2.32051
      vertex -4.01924 -450 66.9615
      vertex 27.3205 -450 -7.32051
    endloop
  endfacet
  facet normal 2.11177e-16 0.309017 -0.951057
    outer loop
      vertex 17.5728 4.15823 10.437
      vertex 18.3188 8.13473 11.7291
      vertex 710.437 4.15823 10.437
    endloop
  endfacet
  facet normal 2.11177e-16 0.309017 -0.951057
    outer loop
      vertex 710.437 4.15823 10.437
      vertex 18.3188 8.13473 11.7291
      vertex 710.855 8.13473 11.7291
    endloop
  endfacet
  facet normal 1.92296e-16 0.5 -0.866025
    outer loop
      vertex 18.3188 8.13473 11.7291
      vertex 19.5258 11.7557 13.8197
      vertex 710.855 8.13473 11.7291
    endloop
  endfacet
  facet normal 1.92296e-16 0.5 -0.866025
    outer loop
      vertex 711.093 10.3956 13.0344
      vertex 19.5258 11.7557 13.8197
      vertex 711.535 11.7557 13.8197
    endloop
  endfacet
  facet normal 1.92296e-16 0.5 -0.866025
    outer loop
      vertex 710.855 8.13473 11.7291
      vertex 19.5258 11.7557 13.8197
      vertex 711.093 10.3956 13.0344
    endloop
  endfacet
  facet normal 1.65011e-16 0.669131 -0.743145
    outer loop
      vertex 19.5258 11.7557 13.8197
      vertex 21.1411 14.8629 16.6174
      vertex 711.535 11.7557 13.8197
    endloop
  endfacet
  facet normal 1.65011e-16 0.669131 -0.743145
    outer loop
      vertex 711.535 11.7557 13.8197
      vertex 21.1411 14.8629 16.6174
      vertex 712.544 14.8629 16.6174
    endloop
  endfacet
  facet normal 1.30515e-16 0.809017 -0.587785
    outer loop
      vertex 21.1411 14.8629 16.6174
      vertex 23.094 17.3205 20
      vertex 712.544 14.8629 16.6174
    endloop
  endfacet
  facet normal 1.30515e-16 0.809017 -0.587785
    outer loop
      vertex 712.544 14.8629 16.6174
      vertex 23.094 17.3205 20
      vertex 713.343 17.3205 20
    endloop
  endfacet
  facet normal 9.03137e-17 0.913545 -0.406737
    outer loop
      vertex 23.094 17.3205 20
      vertex 25.2993 19.0211 23.8197
      vertex 713.343 17.3205 20
    endloop
  endfacet
  facet normal 9.03137e-17 0.913545 -0.406737
    outer loop
      vertex 713.343 17.3205 20
      vertex 25.2993 19.0211 23.8197
      vertex 713.895 19.0211 23.8197
    endloop
  endfacet
  facet normal 4.61657e-17 0.978148 -0.207912
    outer loop
      vertex 25.2993 19.0211 23.8197
      vertex 27.6605 19.8904 27.9094
      vertex 713.895 19.0211 23.8197
    endloop
  endfacet
  facet normal 4.61657e-17 0.978148 -0.207912
    outer loop
      vertex 713.895 19.0211 23.8197
      vertex 27.6605 19.8904 27.9094
      vertex 714.178 19.8904 27.9094
    endloop
  endfacet
  facet normal 0 1 0
    outer loop
      vertex 27.6605 19.8904 27.9094
      vertex 30.0745 19.8904 32.0906
      vertex 714.178 19.8904 27.9094
    endloop
  endfacet
  facet normal 0 1 0
    outer loop
      vertex 714.178 19.8904 27.9094
      vertex 30.0745 19.8904 32.0906
      vertex 714.178 19.8904 32.0906
    endloop
  endfacet
  facet normal -4.61657e-17 0.978148 0.207912
    outer loop
      vertex 30.0745 19.8904 32.0906
      vertex 32.4357 19.0211 36.1803
      vertex 714.178 19.8904 32.0906
    endloop
  endfacet
  facet normal -4.61657e-17 0.978148 0.207912
    outer loop
      vertex 714.178 19.8904 32.0906
      vertex 32.4357 19.0211 36.1803
      vertex 713.895 19.0211 36.1803
    endloop
  endfacet
  facet normal -9.03137e-17 0.913545 0.406737
    outer loop
      vertex 32.4357 19.0211 36.1803
      vertex 34.641 17.3205 40
      vertex 713.895 19.0211 36.1803
    endloop
  endfacet
  facet normal -9.03137e-17 0.913545 0.406737
    outer loop
      vertex 713.343 17.3205 40
      vertex 34.641 17.3205 40
      vertex 780 17.3205 40
    endloop
  endfacet
  facet normal -9.03137e-17 0.913545 0.406737
    outer loop
      vertex 713.895 19.0211 36.1803
      vertex 34.641 17.3205 40
      vertex 713.343 17.3205 40
    endloop
  endfacet
  facet normal -1.30515e-16 0.809017 0.587785
    outer loop
      vertex 34.641 17.3205 40
      vertex 36.594 14.8629 43.3826
      vertex 780 17.3205 40
    endloop
  endfacet
  facet normal -1.30515e-16 0.809017 0.587785
    outer loop
      vertex 780 17.3205 40
      vertex 36.594 14.8629 43.3826
      vertex 780 14.8629 43.3826
    endloop
  endfacet
  facet normal -1.65011e-16 0.669131 0.743145
    outer loop
      vertex 780 14.8629 43.3826
      vertex 36.594 14.8629 43.3826
      vertex 38.2092 11.7557 46.1803
    endloop
  endfacet
  facet normal -1.65011e-16 0.669131 0.743145
    outer loop
      vertex 780 11.7557 46.1803
      vertex 780 14.8629 43.3826
      vertex 38.2092 11.7557 46.1803
    endloop
  endfacet
  facet normal -1.92296e-16 0.5 0.866025
    outer loop
      vertex 780 11.7557 46.1803
      vertex 38.2092 11.7557 46.1803
      vertex 39.4162 8.13473 48.2709
    endloop
  endfacet
  facet normal -1.92296e-16 0.5 0.866025
    outer loop
      vertex 780 8.13473 48.2709
      vertex 780 11.7557 46.1803
      vertex 39.4162 8.13473 48.2709
    endloop
  endfacet
  facet normal -2.11177e-16 0.309017 0.951057
    outer loop
      vertex 780 8.13473 48.2709
      vertex 39.4162 8.13473 48.2709
      vertex 40.1622 4.15823 49.563
    endloop
  endfacet
  facet normal -2.11177e-16 0.309017 0.951057
    outer loop
      vertex 780 4.15823 49.563
      vertex 780 8.13473 48.2709
      vertex 40.1622 4.15823 49.563
    endloop
  endfacet
  facet normal 0 0 1
    outer loop
      vertex 780 -17.3205 40
      vertex 713.343 -17.3205 40
      vertex 714.323 -20.3368 40
    endloop
  endfacet
  facet normal 0 0 1
    outer loop
      vertex 726.543 -37.1572 40
      vertex 780 -17.3205 40
      vertex 719.549 -29.3893 40
    endloop
  endfacet
  facet normal 0 0 1
    outer loop
      vertex 719.549 -29.3893 40
      vertex 780 -17.3205 40
      vertex 714.323 -20.3368 40
    endloop
  endfacet
  facet normal 0 0 1
    outer loop
      vertex 735 -43.3013 40
      vertex 780 -17.3205 40
      vertex 726.543 -37.1572 40
    endloop
  endfacet
  facet normal 0 0 1
    outer loop
      vertex 744.549 -47.5528 40
      vertex 780 -17.3205 40
      vertex 735 -43.3013 40
    endloop
  endfacet
  facet normal 0 0 1
    outer loop
      vertex 754.774 -49.7261 40
      vertex 780 -17.3205 40
      vertex 744.549 -47.5528 40
    endloop
  endfacet
  facet normal 0 0 1
    outer loop
      vertex 765.226 -49.7261 40
      vertex 780 -17.3205 40
      vertex 754.774 -49.7261 40
    endloop
  endfacet
  facet normal 0 0 1
    outer loop
      vertex 775.451 -47.5528 40
      vertex 780 -17.3205 40
      vertex 765.226 -49.7261 40
    endloop
  endfacet
  facet normal 0 0 1
    outer loop
      vertex 785 -43.3013 40
      vertex 780 -17.3205 40
      vertex 775.451 -47.5528 40
    endloop
  endfacet
  facet normal 0 0 1
    outer loop
      vertex 793.457 -37.1572 40
      vertex 780 -17.3205 40
      vertex 785 -43.3013 40
    endloop
  endfacet
  facet normal 0 0 1
    outer loop
      vertex 800.451 -29.3893 40
      vertex 780 -17.3205 40
      vertex 793.457 -37.1572 40
    endloop
  endfacet
  facet normal 0 0 1
    outer loop
      vertex 805.677 -20.3368 40
      vertex 780 -17.3205 40
      vertex 800.451 -29.3893 40
    endloop
  endfacet
  facet normal 0 0 1
    outer loop
      vertex 808.907 -10.3956 40
      vertex 780 -17.3205 40
      vertex 805.677 -20.3368 40
    endloop
  endfacet
  facet normal 0 0 1
    outer loop
      vertex 713.343 17.3205 40
      vertex 719.549 29.3893 40
      vertex 714.323 20.3368 40
    endloop
  endfacet
  facet normal 0 0 1
    outer loop
      vertex 713.343 17.3205 40
      vertex 726.543 37.1572 40
      vertex 719.549 29.3893 40
    endloop
  endfacet
  facet normal 0 0 1
    outer loop
      vertex 713.343 17.3205 40
      vertex 735 43.3013 40
      vertex 726.543 37.1572 40
    endloop
  endfacet
  facet normal 0 0 1
    outer loop
      vertex 713.343 17.3205 40
      vertex 744.549 47.5528 40
      vertex 735 43.3013 40
    endloop
  endfacet
  facet normal 0 0 1
    outer loop
      vertex 800.451 29.3893 40
      vertex 780 17.3205 40
      vertex 805.677 20.3368 40
    endloop
  endfacet
  facet normal 0 0 1
    outer loop
      vertex 780 17.3205 40
      vertex 808.907 10.3956 40
      vertex 805.677 20.3368 40
    endloop
  endfacet
  facet normal 0 0 1
    outer loop
      vertex 780 17.3205 40
      vertex 810 0 40
      vertex 808.907 10.3956 40
    endloop
  endfacet
  facet normal 0 0 1
    outer loop
      vertex 780 17.3205 40
      vertex 808.907 -10.3956 40
      vertex 810 0 40
    endloop
  endfacet
  facet normal 0 0 1
    outer loop
      vertex 780 17.3205 40
      vertex 780 -17.3205 40
      vertex 808.907 -10.3956 40
    endloop
  endfacet
  facet normal 0 0 1
    outer loop
      vertex 713.343 17.3205 40
      vertex 754.774 49.7261 40
      vertex 744.549 47.5528 40
    endloop
  endfacet
  facet normal 0 0 1
    outer loop
      vertex 713.343 17.3205 40
      vertex 765.226 49.7261 40
      vertex 754.774 49.7261 40
    endloop
  endfacet
  facet normal 0 0 1
    outer loop
      vertex 713.343 17.3205 40
      vertex 775.451 47.5528 40
      vertex 765.226 49.7261 40
    endloop
  endfacet
  facet normal 0 0 1
    outer loop
      vertex 713.343 17.3205 40
      vertex 785 43.3013 40
      vertex 775.451 47.5528 40
    endloop
  endfacet
  facet normal 0 0 1
    outer loop
      vertex 713.343 17.3205 40
      vertex 793.457 37.1572 40
      vertex 785 43.3013 40
    endloop
  endfacet
  facet normal 0 0 1
    outer loop
      vertex 713.343 17.3205 40
      vertex 800.451 29.3893 40
      vertex 793.457 37.1572 40
    endloop
  endfacet
  facet normal 0 0 1
    outer loop
      vertex 713.343 17.3205 40
      vertex 780 17.3205 40
      vertex 800.451 29.3893 40
    endloop
  endfacet
  facet normal -0.951057 -0.309017 0
    outer loop
      vertex 711.093 -10.3956 0
      vertex 714.323 -20.3368 0
      vertex 711.093 -10.3956 13.0344
    endloop
  endfacet
  facet normal -0.951057 -0.309017 0
    outer loop
      vertex 714.178 -19.8904 32.0906
      vertex 714.323 -20.3368 0
      vertex 714.323 -20.3368 40
    endloop
  endfacet
  facet normal -0.951057 -0.309017 0
    outer loop
      vertex 713.895 -19.0211 23.8197
      vertex 714.323 -20.3368 0
      vertex 714.178 -19.8904 27.9094
    endloop
  endfacet
  facet normal -0.951057 -0.309017 0
    outer loop
      vertex 714.178 -19.8904 27.9094
      vertex 714.323 -20.3368 0
      vertex 714.178 -19.8904 32.0906
    endloop
  endfacet
  facet normal -0.951057 -0.309017 0
    outer loop
      vertex 713.895 -19.0211 36.1803
      vertex 714.178 -19.8904 32.0906
      vertex 714.323 -20.3368 40
    endloop
  endfacet
  facet normal -0.951057 -0.309017 0
    outer loop
      vertex 713.343 -17.3205 20
      vertex 714.323 -20.3368 0
      vertex 713.895 -19.0211 23.8197
    endloop
  endfacet
  facet normal -0.951057 -0.309017 0
    outer loop
      vertex 712.544 -14.8629 16.6174
      vertex 714.323 -20.3368 0
      vertex 713.343 -17.3205 20
    endloop
  endfacet
  facet normal -0.951057 -0.309017 0
    outer loop
      vertex 711.535 -11.7557 13.8197
      vertex 714.323 -20.3368 0
      vertex 712.544 -14.8629 16.6174
    endloop
  endfacet
  facet normal -0.951057 -0.309017 0
    outer loop
      vertex 711.093 -10.3956 13.0344
      vertex 714.323 -20.3368 0
      vertex 711.535 -11.7557 13.8197
    endloop
  endfacet
  facet normal -0.951057 -0.309017 0
    outer loop
      vertex 713.895 -19.0211 36.1803
      vertex 714.323 -20.3368 40
      vertex 713.343 -17.3205 40
    endloop
  endfacet
  facet normal -0.994522 -0.104528 0
    outer loop
      vertex 710 0 0
      vertex 711.093 -10.3956 0
      vertex 710 0 10
    endloop
  endfacet
  facet normal -0.994522 -0.104528 0
    outer loop
      vertex 710.855 -8.13473 11.7291
      vertex 711.093 -10.3956 0
      vertex 711.093 -10.3956 13.0344
    endloop
  endfacet
  facet normal -0.994522 -0.104528 0
    outer loop
      vertex 710.437 -4.15823 10.437
      vertex 711.093 -10.3956 0
      vertex 710.855 -8.13473 11.7291
    endloop
  endfacet
  facet normal -0.994522 -0.104528 0
    outer loop
      vertex 710 0 10
      vertex 711.093 -10.3956 0
      vertex 710.437 -4.15823 10.437
    endloop
  endfacet
  facet normal -0.994522 0.104528 0
    outer loop
      vertex 710 0 0
      vertex 710 0 10
      vertex 711.093 10.3956 0
    endloop
  endfacet
  facet normal -0.994522 0.104528 0
    outer loop
      vertex 711.093 10.3956 0
      vertex 710 0 10
      vertex 710.437 4.15823 10.437
    endloop
  endfacet
  facet normal -0.994522 0.104528 0
    outer loop
      vertex 711.093 10.3956 0
      vertex 710.437 4.15823 10.437
      vertex 710.855 8.13473 11.7291
    endloop
  endfacet
  facet normal -0.994522 0.104528 0
    outer loop
      vertex 710.855 8.13473 11.7291
      vertex 711.093 10.3956 13.0344
      vertex 711.093 10.3956 0
    endloop
  endfacet
  facet normal -0.951057 0.309017 0
    outer loop
      vertex 711.093 10.3956 0
      vertex 711.093 10.3956 13.0344
      vertex 714.323 20.3368 0
    endloop
  endfacet
  facet normal -0.951057 0.309017 0
    outer loop
      vertex 714.323 20.3368 0
      vertex 711.093 10.3956 13.0344
      vertex 711.535 11.7557 13.8197
    endloop
  endfacet
  facet normal -0.951057 0.309017 0
    outer loop
      vertex 714.323 20.3368 0
      vertex 711.535 11.7557 13.8197
      vertex 712.544 14.8629 16.6174
    endloop
  endfacet
  facet normal -0.951057 0.309017 0
    outer loop
      vertex 712.544 14.8629 16.6174
      vertex 713.343 17.3205 20
      vertex 714.323 20.3368 0
    endloop
  endfacet
  facet normal -0.951057 0.309017 0
    outer loop
      vertex 713.343 17.3205 20
      vertex 713.895 19.0211 23.8197
      vertex 714.323 20.3368 0
    endloop
  endfacet
  facet normal -0.951057 0.309017 0
    outer loop
      vertex 713.895 19.0211 23.8197
      vertex 714.178 19.8904 27.9094
      vertex 714.323 20.3368 0
    endloop
  endfacet
  facet normal -0.951057 0.309017 0
    outer loop
      vertex 714.178 19.8904 27.9094
      vertex 714.178 19.8904 32.0906
      vertex 714.323 20.3368 0
    endloop
  endfacet
  facet normal -0.951057 0.309017 0
    outer loop
      vertex 714.178 19.8904 32.0906
      vertex 714.323 20.3368 40
      vertex 714.323 20.3368 0
    endloop
  endfacet
  facet normal -0.951057 0.309017 0
    outer loop
      vertex 713.895 19.0211 36.1803
      vertex 713.343 17.3205 40
      vertex 714.323 20.3368 40
    endloop
  endfacet
  facet normal -0.951057 0.309017 0
    outer loop
      vertex 713.895 19.0211 36.1803
      vertex 714.323 20.3368 40
      vertex 714.178 19.8904 32.0906
    endloop
  endfacet
  facet normal -0.866025 0.5 0
    outer loop
      vertex 714.323 20.3368 0
      vertex 714.323 20.3368 40
      vertex 719.549 29.3893 0
    endloop
  endfacet
  facet normal -0.866025 0.5 0
    outer loop
      vertex 719.549 29.3893 0
      vertex 714.323 20.3368 40
      vertex 719.549 29.3893 40
    endloop
  endfacet
  facet normal -0.743145 0.669131 0
    outer loop
      vertex 719.549 29.3893 0
      vertex 719.549 29.3893 40
      vertex 726.543 37.1572 0
    endloop
  endfacet
  facet normal -0.743145 0.669131 0
    outer loop
      vertex 726.543 37.1572 0
      vertex 719.549 29.3893 40
      vertex 726.543 37.1572 40
    endloop
  endfacet
  facet normal -0.587785 0.809017 0
    outer loop
      vertex 726.543 37.1572 0
      vertex 726.543 37.1572 40
      vertex 735 43.3013 0
    endloop
  endfacet
  facet normal -0.587785 0.809017 0
    outer loop
      vertex 735 43.3013 0
      vertex 726.543 37.1572 40
      vertex 735 43.3013 40
    endloop
  endfacet
  facet normal -0.406737 0.913545 0
    outer loop
      vertex 735 43.3013 0
      vertex 735 43.3013 40
      vertex 744.549 47.5528 0
    endloop
  endfacet
  facet normal -0.406737 0.913545 0
    outer loop
      vertex 744.549 47.5528 0
      vertex 735 43.3013 40
      vertex 744.549 47.5528 40
    endloop
  endfacet
  facet normal -0.207912 0.978148 0
    outer loop
      vertex 744.549 47.5528 0
      vertex 744.549 47.5528 40
      vertex 754.774 49.7261 0
    endloop
  endfacet
  facet normal -0.207912 0.978148 0
    outer loop
      vertex 754.774 49.7261 0
      vertex 744.549 47.5528 40
      vertex 754.774 49.7261 40
    endloop
  endfacet
  facet normal 0 1 0
    outer loop
      vertex 754.774 49.7261 0
      vertex 754.774 49.7261 40
      vertex 765.226 49.7261 0
    endloop
  endfacet
  facet normal 0 1 0
    outer loop
      vertex 765.226 49.7261 0
      vertex 754.774 49.7261 40
      vertex 765.226 49.7261 40
    endloop
  endfacet
  facet normal 0.207912 0.978148 0
    outer loop
      vertex 765.226 49.7261 0
      vertex 765.226 49.7261 40
      vertex 775.451 47.5528 0
    endloop
  endfacet
  facet normal 0.207912 0.978148 0
    outer loop
      vertex 775.451 47.5528 0
      vertex 765.226 49.7261 40
      vertex 775.451 47.5528 40
    endloop
  endfacet
  facet normal 0.406737 0.913545 0
    outer loop
      vertex 775.451 47.5528 0
      vertex 775.451 47.5528 40
      vertex 785 43.3013 0
    endloop
  endfacet
  facet normal 0.406737 0.913545 0
    outer loop
      vertex 785 43.3013 0
      vertex 775.451 47.5528 40
      vertex 785 43.3013 40
    endloop
  endfacet
  facet normal 0.587785 0.809017 0
    outer loop
      vertex 785 43.3013 0
      vertex 785 43.3013 40
      vertex 793.457 37.1572 0
    endloop
  endfacet
  facet normal 0.587785 0.809017 0
    outer loop
      vertex 793.457 37.1572 0
      vertex 785 43.3013 40
      vertex 793.457 37.1572 40
    endloop
  endfacet
  facet normal 0.743145 0.669131 0
    outer loop
      vertex 800.451 29.3893 0
      vertex 793.457 37.1572 0
      vertex 793.457 37.1572 40
    endloop
  endfacet
  facet normal 0.743145 0.669131 0
    outer loop
      vertex 800.451 29.3893 40
      vertex 800.451 29.3893 0
      vertex 793.457 37.1572 40
    endloop
  endfacet
  facet normal 0.866025 0.5 0
    outer loop
      vertex 805.677 20.3368 0
      vertex 800.451 29.3893 0
      vertex 800.451 29.3893 40
    endloop
  endfacet
  facet normal 0.866025 0.5 0
    outer loop
      vertex 805.677 20.3368 40
      vertex 805.677 20.3368 0
      vertex 800.451 29.3893 40
    endloop
  endfacet
  facet normal 0.951057 0.309017 0
    outer loop
      vertex 808.907 10.3956 0
      vertex 805.677 20.3368 0
      vertex 805.677 20.3368 40
    endloop
  endfacet
  facet normal 0.951057 0.309017 0
    outer loop
      vertex 808.907 10.3956 40
      vertex 808.907 10.3956 0
      vertex 805.677 20.3368 40
    endloop
  endfacet
  facet normal 0.994522 0.104528 0
    outer loop
      vertex 810 0 0
      vertex 808.907 10.3956 0
      vertex 808.907 10.3956 40
    endloop
  endfacet
  facet normal 0.994522 0.104528 0
    outer loop
      vertex 810 0 40
      vertex 810 0 0
      vertex 808.907 10.3956 40
    endloop
  endfacet
  facet normal 0.994522 -0.104528 0
    outer loop
      vertex 808.907 -10.3956 40
      vertex 808.907 -10.3956 0
      vertex 810 0 0
    endloop
  endfacet
  facet normal 0.994522 -0.104528 0
    outer loop
      vertex 810 0 40
      vertex 808.907 -10.3956 40
      vertex 810 0 0
    endloop
  endfacet
  facet normal 0.951057 -0.309017 0
    outer loop
      vertex 805.677 -20.3368 40
      vertex 805.677 -20.3368 0
      vertex 808.907 -10.3956 0
    endloop
  endfacet
  facet normal 0.951057 -0.309017 0
    outer loop
      vertex 808.907 -10.3956 40
      vertex 805.677 -20.3368 40
      vertex 808.907 -10.3956 0
    endloop
  endfacet
  facet normal 0.866025 -0.5 0
    outer loop
      vertex 800.451 -29.3893 40
      vertex 800.451 -29.3893 0
      vertex 805.677 -20.3368 0
    endloop
  endfacet
  facet normal 0.866025 -0.5 0
    outer loop
      vertex 805.677 -20.3368 40
      vertex 800.451 -29.3893 40
      vertex 805.677 -20.3368 0
    endloop
  endfacet
  facet normal 0.743145 -0.669131 0
    outer loop
      vertex 793.457 -37.1572 40
      vertex 793.457 -37.1572 0
      vertex 800.451 -29.3893 0
    endloop
  endfacet
  facet normal 0.743145 -0.669131 0
    outer loop
      vertex 800.451 -29.3893 40
      vertex 793.457 -37.1572 40
      vertex 800.451 -29.3893 0
    endloop
  endfacet
  facet normal 0.587785 -0.809017 0
    outer loop
      vertex 785 -43.3013 40
      vertex 785 -43.3013 0
      vertex 793.457 -37.1572 0
    endloop
  endfacet
  facet normal 0.587785 -0.809017 0
    outer loop
      vertex 793.457 -37.1572 40
      vertex 785 -43.3013 40
      vertex 793.457 -37.1572 0
    endloop
  endfacet
  facet normal 0.406737 -0.913545 0
    outer loop
      vertex 775.451 -47.5528 40
      vertex 775.451 -47.5528 0
      vertex 785 -43.3013 0
    endloop
  endfacet
  facet normal 0.406737 -0.913545 0
    outer loop
      vertex 785 -43.3013 40
      vertex 775.451 -47.5528 40
      vertex 785 -43.3013 0
    endloop
  endfacet
  facet normal 0.207912 -0.978148 0
    outer loop
      vertex 765.226 -49.7261 40
      vertex 765.226 -49.7261 0
      vertex 775.451 -47.5528 0
    endloop
  endfacet
  facet normal 0.207912 -0.978148 0
    outer loop
      vertex 775.451 -47.5528 40
      vertex 765.226 -49.7261 40
      vertex 775.451 -47.5528 0
    endloop
  endfacet
  facet normal 0 -1 0
    outer loop
      vertex 754.774 -49.7261 40
      vertex 754.774 -49.7261 0
      vertex 765.226 -49.7261 0
    endloop
  endfacet
  facet normal 0 -1 0
    outer loop
      vertex 765.226 -49.7261 40
      vertex 754.774 -49.7261 40
      vertex 765.226 -49.7261 0
    endloop
  endfacet
  facet normal -0.207912 -0.978148 0
    outer loop
      vertex 744.549 -47.5528 40
      vertex 744.549 -47.5528 0
      vertex 754.774 -49.7261 0
    endloop
  endfacet
  facet normal -0.207912 -0.978148 0
    outer loop
      vertex 754.774 -49.7261 40
      vertex 744.549 -47.5528 40
      vertex 754.774 -49.7261 0
    endloop
  endfacet
  facet normal -0.406737 -0.913545 0
    outer loop
      vertex 735 -43.3013 40
      vertex 735 -43.3013 0
      vertex 744.549 -47.5528 0
    endloop
  endfacet
  facet normal -0.406737 -0.913545 0
    outer loop
      vertex 744.549 -47.5528 40
      vertex 735 -43.3013 40
      vertex 744.549 -47.5528 0
    endloop
  endfacet
  facet normal -0.587785 -0.809017 0
    outer loop
      vertex 726.543 -37.1572 40
      vertex 726.543 -37.1572 0
      vertex 735 -43.3013 0
    endloop
  endfacet
  facet normal -0.587785 -0.809017 0
    outer loop
      vertex 735 -43.3013 40
      vertex 726.543 -37.1572 40
      vertex 735 -43.3013 0
    endloop
  endfacet
  facet normal -0.743145 -0.669131 0
    outer loop
      vertex 719.549 -29.3893 0
      vertex 726.543 -37.1572 0
      vertex 719.549 -29.3893 40
    endloop
  endfacet
  facet normal -0.743145 -0.669131 0
    outer loop
      vertex 719.549 -29.3893 40
      vertex 726.543 -37.1572 0
      vertex 726.543 -37.1572 40
    endloop
  endfacet
  facet normal -0.866025 -0.5 0
    outer loop
      vertex 714.323 -20.3368 0
      vertex 719.549 -29.3893 0
      vertex 714.323 -20.3368 40
    endloop
  endfacet
  facet normal -0.866025 -0.5 0
    outer loop
      vertex 714.323 -20.3368 40
      vertex 719.549 -29.3893 0
      vertex 719.549 -29.3893 40
    endloop
  endfacet
  facet normal 0 0 -1
    outer loop
      vertex 710 0 0
      vertex 711.093 10.3956 0
      vertex 711.093 -10.3956 0
    endloop
  endfacet
  facet normal 0 0 -1
    outer loop
      vertex 711.093 -10.3956 0
      vertex 711.093 10.3956 0
      vertex 714.323 20.3368 0
    endloop
  endfacet
  facet normal 0 0 -1
    outer loop
      vertex 711.093 -10.3956 0
      vertex 714.323 20.3368 0
      vertex 719.549 29.3893 0
    endloop
  endfacet
  facet normal 0 0 -1
    outer loop
      vertex 711.093 -10.3956 0
      vertex 719.549 29.3893 0
      vertex 726.543 37.1572 0
    endloop
  endfacet
  facet normal 0 0 -1
    outer loop
      vertex 711.093 -10.3956 0
      vertex 726.543 37.1572 0
      vertex 735 43.3013 0
    endloop
  endfacet
  facet normal 0 0 -1
    outer loop
      vertex 711.093 -10.3956 0
      vertex 735 43.3013 0
      vertex 744.549 47.5528 0
    endloop
  endfacet
  facet normal 0 0 -1
    outer loop
      vertex 711.093 -10.3956 0
      vertex 744.549 47.5528 0
      vertex 754.774 49.7261 0
    endloop
  endfacet
  facet normal 0 0 -1
    outer loop
      vertex 711.093 -10.3956 0
      vertex 754.774 49.7261 0
      vertex 765.226 49.7261 0
    endloop
  endfacet
  facet normal 0 0 -1
    outer loop
      vertex 711.093 -10.3956 0
      vertex 765.226 49.7261 0
      vertex 775.451 47.5528 0
    endloop
  endfacet
  facet normal 0 0 -1
    outer loop
      vertex 711.093 -10.3956 0
      vertex 775.451 47.5528 0
      vertex 785 43.3013 0
    endloop
  endfacet
  facet normal 0 0 -1
    outer loop
      vertex 711.093 -10.3956 0
      vertex 785 43.3013 0
      vertex 793.457 37.1572 0
    endloop
  endfacet
  facet normal 0 0 -1
    outer loop
      vertex 711.093 -10.3956 0
      vertex 793.457 37.1572 0
      vertex 800.451 29.3893 0
    endloop
  endfacet
  facet normal 0 0 -1
    outer loop
      vertex 711.093 -10.3956 0
      vertex 800.451 29.3893 0
      vertex 805.677 20.3368 0
    endloop
  endfacet
  facet normal 0 0 -1
    outer loop
      vertex 711.093 -10.3956 0
      vertex 805.677 20.3368 0
      vertex 808.907 10.3956 0
    endloop
  endfacet
  facet normal 0 0 -1
    outer loop
      vertex 711.093 -10.3956 0
      vertex 808.907 10.3956 0
      vertex 810 0 0
    endloop
  endfacet
  facet normal 0 0 -1
    outer loop
      vertex 711.093 -10.3956 0
      vertex 810 0 0
      vertex 808.907 -10.3956 0
    endloop
  endfacet
  facet normal 0 0 -1
    outer loop
      vertex 711.093 -10.3956 0
      vertex 808.907 -10.3956 0
      vertex 805.677 -20.3368 0
    endloop
  endfacet
  facet normal 0 0 -1
    outer loop
      vertex 711.093 -10.3956 0
      vertex 805.677 -20.3368 0
      vertex 800.451 -29.3893 0
    endloop
  endfacet
  facet normal 0 0 -1
    outer loop
      vertex 711.093 -10.3956 0
      vertex 800.451 -29.3893 0
      vertex 793.457 -37.1572 0
    endloop
  endfacet
  facet normal 0 0 -1
    outer loop
      vertex 711.093 -10.3956 0
      vertex 793.457 -37.1572 0
      vertex 785 -43.3013 0
    endloop
  endfacet
  facet normal 0 0 -1
    outer loop
      vertex 711.093 -10.3956 0
      vertex 785 -43.3013 0
      vertex 775.451 -47.5528 0
    endloop
  endfacet
  facet normal 0 0 -1
    outer loop
      vertex 711.093 -10.3956 0
      vertex 775.451 -47.5528 0
      vertex 765.226 -49.7261 0
    endloop
  endfacet
  facet normal 0 0 -1
    outer loop
      vertex 711.093 -10.3956 0
      vertex 765.226 -49.7261 0
      vertex 754.774 -49.7261 0
    endloop
  endfacet
  facet normal 0 0 -1
    outer loop
      vertex 711.093 -10.3956 0
      vertex 754.774 -49.7261 0
      vertex 744.549 -47.5528 0
    endloop
  endfacet
  facet normal 0 0 -1
    outer loop
      vertex 711.093 -10.3956 0
      vertex 744.549 -47.5528 0
      vertex 735 -43.3013 0
    endloop
  endfacet
  facet normal 0 0 -1
    outer loop
      vertex 711.093 -10.3956 0
      vertex 735 -43.3013 0
      vertex 726.543 -37.1572 0
    endloop
  endfacet
  facet normal 0 0 -1
    outer loop
      vertex 711.093 -10.3956 0
      vertex 726.543 -37.1572 0
      vertex 719.549 -29.3893 0
    endloop
  endfacet
  facet normal 0 0 -1
    outer loop
      vertex 711.093 -10.3956 0
      vertex 719.549 -29.3893 0
      vertex 714.323 -20.3368 0
    endloop
  endfacet
endsolid OpenSCAD_Model
